# xmcd
#
# Track frame offsets:
#	150
#	16610
#	29612
#	43137
#	62370
#	75922
#	104342
#	117600
#	135220
#	150067
#	163155
#	175490
#	188835
#	200950
#	228930
#	243937
#	261665
#	271292
#	284007
#	293722
#
# Disc length: 4034 seconds
#
# Revision: 0
# Processed by: cddbd v1.4PL0 Copyright (c) Steve Scherf et al.
# Submitted via: dBpowerAMP V4.0
#
DISCID=180fc014
DTITLE=Ray Charles - I can't stop loving you
DYEAR=1900
DGENRE=Blues
TTITLE0=Georgia of my mind
TTITLE1=Unchain my heart
TTITLE2=Eleanor rigby
TTITLE3=I can't stop loving you
TTITLE4=Take these chains from my heart
TTITLE5=Makin' whoopee
TTITLE6=Let's go get stoned
TTITLE7=Ruby
TTITLE8=Born to loose
TTITLE9=Makin' believe
TTITLE10=Mess around
TTITLE11=Crying time
TTITLE12=Together again
TTITLE13=I've got a woman
TTITLE14=Here we go again
TTITLE15=what'd i say
TTITLE16=Busted
TTITLE17=Yesterday
TTITLE18=Yes indeed
TTITLE19=Hit the road jack
EXTD=
EXTT0=
EXTT1=
EXTT2=
EXTT3=
EXTT4=
EXTT5=
EXTT6=
EXTT7=
EXTT8=
EXTT9=
EXTT10=
EXTT11=
EXTT12=
EXTT13=
EXTT14=
EXTT15=
EXTT16=
EXTT17=
EXTT18=
EXTT19=
PLAYORDER=
